<?xml version="1.0" encoding="UTF-8" standalone="no"?>
<!DOCTYPE svg PUBLIC "-//W3C//DTD SVG 1.1//EN" "http://www.w3.org/Graphics/SVG/1.1/DTD/svg11.dtd">
<svg width="100%" height="100%" viewBox="0 0 349 43" version="1.1" xmlns="http://www.w3.org/2000/svg" xmlns:xlink="http://www.w3.org/1999/xlink" xml:space="preserve" xmlns:serif="http://www.serif.com/" style="fill-rule:evenodd;clip-rule:evenodd;stroke-linejoin:round;stroke-miterlimit:2;">
    <g transform="matrix(1,0,0,1,-42.6,-42.3)">
        <rect x="250.6" y="42.5" width="141.1" height="42.5"/>
        <path d="M276.9,70.5C276.5,70.7 276,70.5 275.7,70.1L274.5,67.4C273.4,67.1 272.3,67.1 271.2,67.3C270.3,67.5 269.5,67.8 268.6,68.3C267.7,68.8 266.8,69.5 266.2,70.2C265.9,70.5 265.4,70.6 265.1,70.4C264.7,70.2 264.8,69.7 264.9,69.3L270.4,57.4C270.6,57.1 270.9,56.9 271.2,56.9C271.5,56.9 271.9,57.1 272,57.4L277.4,69.3C277.5,69.8 277.3,70.3 276.9,70.5ZM271.1,59.9L267.8,67C268.7,66.5 269.9,66 270.9,65.8C271.8,65.6 272.8,65.6 273.7,65.6L271.1,59.9Z" style="fill:white;fill-rule:nonzero;"/>
        <path d="M288.3,70.8C287.3,70.8 286.4,70.6 285.5,70.2C284.7,69.8 283.9,69.3 283.3,68.7C282.6,68.1 282.1,67.3 281.8,66.5C281.4,65.6 281.2,64.7 281.2,63.8C281.2,62.8 281.4,61.9 281.8,61.1C282.2,60.3 282.7,59.5 283.3,58.9C284,58.2 284.7,57.7 285.6,57.4C286.5,57 287.4,56.8 288.4,56.8C290,56.8 291.4,57.3 292.6,58.2C293,58.5 293,59 292.8,59.4C292.5,59.8 292,59.8 291.6,59.6C290.7,58.9 289.6,58.5 288.4,58.5C287.7,58.5 287,58.6 286.3,58.9C285.7,59.2 285.1,59.6 284.6,60.1C284.1,60.6 283.7,61.2 283.4,61.8C283.1,62.4 283,63.1 283,63.8C283,64.5 283.1,65.2 283.4,65.8C283.7,66.4 284.1,67 284.6,67.5C285.6,68.5 287,69.1 288.4,69.1C289,69.1 289.6,69 290.2,68.8C290.8,68.6 291.3,68.3 291.8,67.9C292.2,67.6 292.7,67.6 293,68C293.3,68.4 293.3,68.9 292.9,69.2C292.3,69.7 291.6,70.1 290.8,70.4C290,70.7 289.1,70.8 288.3,70.8Z" style="fill:white;fill-rule:nonzero;"/>
        <path d="M310.3,70.5C309.9,70.7 309.4,70.5 309.1,70.1L307.9,67.4C306.8,67.1 305.7,67.1 304.6,67.3C303.7,67.5 302.9,67.8 302,68.3C301.1,68.8 300.2,69.5 299.6,70.2C299.3,70.5 298.8,70.6 298.5,70.4C298.1,70.2 298.2,69.7 298.3,69.3L303.8,57.4C304,57.1 304.2,56.9 304.6,56.9C304.9,56.9 305.3,57.1 305.4,57.4L310.8,69.3C310.9,69.8 310.7,70.3 310.3,70.5ZM304.5,59.9L301.2,67C302.1,66.5 303.3,66 304.3,65.8C305.2,65.6 306.2,65.6 307.1,65.6L304.5,59.9Z" style="fill:white;fill-rule:nonzero;"/>
        <path d="M320.6,70.6L316.7,70.6C316.2,70.6 315.8,70.2 315.8,69.7L315.8,57.9C315.8,57.7 315.9,57.5 316.1,57.3C316.3,57.1 316.5,57 316.7,57L320.7,57C321.7,57 322.6,57.2 323.4,57.5C324.2,57.8 325,58.3 325.6,59C326.2,59.6 326.7,60.4 327.1,61.2C327.5,62 327.7,62.9 327.7,63.8C327.7,64.7 327.5,65.6 327.1,66.4C326.7,67.2 326.2,67.9 325.6,68.6C324.9,69.2 324.2,69.7 323.4,70.1C322.5,70.4 321.5,70.6 320.6,70.6ZM317.5,68.8L320.6,68.8C321.3,68.8 322,68.6 322.6,68.4C323.2,68.1 323.8,67.8 324.3,67.3C324.8,66.8 325.2,66.3 325.5,65.7C325.8,65.1 325.9,64.5 325.9,63.8C325.9,63.1 325.8,62.5 325.5,61.8C325.2,61.2 324.8,60.6 324.4,60.2C323.4,59.2 322.1,58.7 320.7,58.7L317.6,58.7L317.6,68.8L317.5,68.8Z" style="fill:white;fill-rule:nonzero;"/>
        <path d="M342.8,69.7C342.8,70.2 342.4,70.6 341.9,70.6L333.6,70.6C333.1,70.6 332.7,70.2 332.7,69.7L332.7,57.9C332.7,57.4 333.1,57 333.6,57L341.7,57C342.2,57 342.6,57.4 342.6,57.9C342.6,58.4 342.2,58.8 341.7,58.8L334.5,58.8L334.5,63L340.9,63C341.4,63 341.8,63.4 341.8,63.9C341.8,64.4 341.4,64.8 340.9,64.8L334.5,64.8L334.5,69L341.9,69C342.4,68.9 342.8,69.2 342.8,69.7Z" style="fill:white;fill-rule:nonzero;"/>
        <path d="M360.4,70.6C359.9,70.6 359.5,70.2 359.5,69.7L359.5,61L355.2,68.1C355,68.3 354.8,68.4 354.5,68.4C354.2,68.4 354,68.3 353.8,68.1L349.5,61L349.5,69.7C349.5,70.2 349.1,70.6 348.6,70.6C348.1,70.6 347.7,70.2 347.7,69.7L347.7,57.8C347.7,57.4 347.9,57.1 348.3,57C348.6,56.9 349,57 349.3,57.3L354.4,66L359.5,57.3C359.7,57 360.1,56.9 360.5,57C360.8,57.1 361.1,57.4 361.1,57.8L361.1,69.7C361.3,70.2 360.9,70.6 360.4,70.6Z" style="fill:white;fill-rule:nonzero;"/>
        <path d="M377.3,58.3L372.8,65L372.8,69.6C372.8,70.1 372.4,70.5 371.9,70.5C371.4,70.5 371,70.1 371,69.6L371,65L366.5,58.3C366.2,57.9 366.3,57.4 366.7,57.1C367.1,56.8 367.6,56.9 367.9,57.3L371.8,63.2L375.7,57.3C376,56.9 376.5,56.8 376.9,57.1C377.5,57.4 377.6,57.9 377.3,58.3Z" style="fill:white;fill-rule:nonzero;"/>
        <path d="M42.5,66.5C42.5,77.3 49.7,85.1 64.2,85.1L77,85.1C91.5,85.1 98.7,77.3 98.7,66.5L98.7,61.2C98.7,50.4 91.5,42.6 77,42.6L64.3,42.6C49.8,42.6 42.6,50.4 42.6,61.2L42.6,66.5L42.5,66.5ZM66.9,50.7L74.2,50.7C82.8,50.7 86.1,53.9 86.1,61.3L86.1,66.2C86.1,73.5 82.8,76.8 74.2,76.8L66.9,76.8C58.4,76.8 55.1,73.5 55.1,66.2L55.1,61.3C55.1,53.9 58.4,50.7 66.9,50.7Z" style="fill-rule:nonzero;"/>
        <g>
            <path d="M129.8,72L116.8,85L100.2,85L120.8,64.5L142.8,42.5L159.4,42.5L138.1,63.8L159.4,85L142.8,85L129.8,72Z" style="fill-rule:nonzero;"/>
        </g>
        <rect x="165.5" y="42.5" width="12.9" height="42.5" style="fill-rule:nonzero;"/>
        <path d="M187.5,85L219.6,85C234.1,85 241.4,77.2 241.4,66.4L241.4,61.1C241.4,50.3 234.1,42.5 219.6,42.5L187.5,42.5L187.5,85ZM199.8,51.4L216.7,51.4C224.6,51.4 228.8,54.4 228.8,61.7L228.8,65.8C228.8,73.2 224.6,76.2 216.7,76.2L199.8,76.2L199.8,51.4Z" style="fill-rule:nonzero;"/>
        <path d="M126.8,52.5L118.5,60.7L100.2,42.5L116.8,42.5L126.8,52.5Z" style="fill-rule:nonzero;"/>
    </g>
    <g id="ACADEMY">
    </g>
    <g id="OXID">
    </g>
</svg>
