<?xml version="1.0" encoding="UTF-8" standalone="no"?>
<!DOCTYPE svg PUBLIC "-//W3C//DTD SVG 1.1//EN" "http://www.w3.org/Graphics/SVG/1.1/DTD/svg11.dtd">
<svg width="100%" height="100%" viewBox="0 0 2000 750" version="1.1" xmlns="http://www.w3.org/2000/svg" xmlns:xlink="http://www.w3.org/1999/xlink" xml:space="preserve" xmlns:serif="http://www.serif.com/" style="fill-rule:evenodd;clip-rule:evenodd;stroke-linejoin:round;stroke-miterlimit:2;">
    <g transform="matrix(2.01988,0,0,2.01988,-1.13687e-13,-0.124705)">
        <g transform="matrix(3.3695,0,0,3.3695,-648.809,180.237)">
            <path d="M254.286,33.16C254.286,31.624 254.862,30.616 255.966,30.184C257.07,29.752 259.518,29.512 263.358,29.512C266.238,29.512 268.302,29.656 269.598,29.944C270.846,30.184 271.806,30.712 272.43,31.48C273.15,32.344 273.486,33.784 273.486,35.752L273.486,38.152L273.198,38.152C272.43,37.096 271.326,36.424 269.934,36.184C268.542,35.896 265.518,35.752 260.958,35.752C256.59,35.752 253.854,35.992 252.654,36.52C251.55,37 250.782,37.672 250.302,38.584C249.87,39.496 249.63,40.84 249.63,42.52C249.63,43.96 249.774,45.064 250.11,45.832C250.398,46.6 250.926,47.272 251.694,47.848C252.51,48.424 253.662,48.808 255.15,49C256.686,49.192 259.374,49.288 263.262,49.288C266.67,49.288 268.974,49.096 270.222,48.76C271.422,48.424 272.478,47.608 273.39,46.408L273.534,46.408L273.486,49L276.99,49L276.99,37.288C276.99,34.648 276.894,32.776 276.654,31.72C276.414,30.616 275.886,29.704 275.118,28.936C274.158,27.976 272.862,27.304 271.23,26.968C269.55,26.632 266.862,26.44 263.07,26.44C258.27,26.44 254.958,26.872 253.23,27.688C251.454,28.552 250.59,30.136 250.59,32.488C250.59,32.728 250.59,33.064 250.638,33.448L254.286,33.448L254.286,33.16ZM271.23,39.64C272.574,40.12 273.246,41.08 273.246,42.52C273.246,44.008 272.622,45.016 271.422,45.496C270.222,45.976 267.774,46.216 264.03,46.216C258.894,46.216 255.918,46.024 255.006,45.592C253.902,45.064 253.374,44.104 253.374,42.616C253.374,41.176 253.854,40.168 254.766,39.592C255.246,39.304 256.062,39.112 257.214,39.016C258.366,38.92 260.382,38.872 263.31,38.872C267.246,38.872 269.886,39.112 271.23,39.64Z" style="fill-rule:nonzero;"/>
            <path d="M302.622,45.208C301.47,45.88 299.118,46.216 295.518,46.216C290.91,46.216 287.982,45.88 286.686,45.208C285.726,44.728 285.006,43.912 284.574,42.808C284.142,41.656 283.902,40.168 283.902,38.2C283.902,36.136 284.094,34.552 284.43,33.352C284.814,32.152 285.39,31.336 286.206,30.76C287.454,29.944 290.094,29.56 294.078,29.56C298.158,29.56 300.846,29.896 302.19,30.568C303.486,31.24 304.158,32.584 304.206,34.696L307.902,34.696C307.854,33.256 307.662,32.104 307.374,31.24C307.086,30.376 306.606,29.608 305.982,28.984C305.07,28.024 303.774,27.4 301.998,27.016C300.27,26.68 297.63,26.488 294.078,26.488C290.142,26.488 287.262,26.776 285.534,27.352C283.806,27.928 282.462,28.984 281.55,30.568C280.638,32.248 280.158,34.696 280.158,37.96C280.158,42.568 281.262,45.688 283.422,47.32C284.382,48.088 285.822,48.568 287.646,48.856C289.518,49.144 292.35,49.288 296.19,49.288C299.07,49.288 301.23,49.096 302.67,48.76C304.158,48.424 305.31,47.8 306.174,46.888C307.374,45.64 307.95,43.672 307.998,40.984L304.446,40.984C304.35,43.144 303.726,44.536 302.622,45.208Z" style="fill-rule:nonzero;"/>
            <path d="M314.91,33.16C314.91,31.624 315.486,30.616 316.59,30.184C317.694,29.752 320.142,29.512 323.982,29.512C326.862,29.512 328.926,29.656 330.222,29.944C331.47,30.184 332.43,30.712 333.054,31.48C333.774,32.344 334.11,33.784 334.11,35.752L334.11,38.152L333.822,38.152C333.054,37.096 331.95,36.424 330.558,36.184C329.166,35.896 326.142,35.752 321.582,35.752C317.214,35.752 314.478,35.992 313.278,36.52C312.174,37 311.406,37.672 310.926,38.584C310.494,39.496 310.254,40.84 310.254,42.52C310.254,43.96 310.398,45.064 310.734,45.832C311.022,46.6 311.55,47.272 312.318,47.848C313.134,48.424 314.286,48.808 315.774,49C317.31,49.192 319.998,49.288 323.886,49.288C327.294,49.288 329.598,49.096 330.846,48.76C332.046,48.424 333.102,47.608 334.014,46.408L334.158,46.408L334.11,49L337.614,49L337.614,37.288C337.614,34.648 337.518,32.776 337.278,31.72C337.038,30.616 336.51,29.704 335.742,28.936C334.782,27.976 333.486,27.304 331.854,26.968C330.174,26.632 327.486,26.44 323.694,26.44C318.894,26.44 315.582,26.872 313.854,27.688C312.078,28.552 311.214,30.136 311.214,32.488C311.214,32.728 311.214,33.064 311.262,33.448L314.91,33.448L314.91,33.16ZM331.854,39.64C333.198,40.12 333.87,41.08 333.87,42.52C333.87,44.008 333.246,45.016 332.046,45.496C330.846,45.976 328.398,46.216 324.654,46.216C319.518,46.216 316.542,46.024 315.63,45.592C314.526,45.064 313.998,44.104 313.998,42.616C313.998,41.176 314.478,40.168 315.39,39.592C315.87,39.304 316.686,39.112 317.838,39.016C318.99,38.92 321.006,38.872 323.934,38.872C327.87,38.872 330.51,39.112 331.854,39.64Z" style="fill-rule:nonzero;"/>
            <path d="M366.078,16.984L366.078,29.416L365.838,29.416C365.07,28.264 364.014,27.496 362.718,27.112C361.374,26.68 359.166,26.488 356.094,26.488C351.294,26.488 348.03,26.776 346.254,27.304C344.526,27.832 343.134,28.984 342.126,30.76C341.214,32.344 340.782,34.744 340.782,37.96C340.782,40.648 341.07,42.76 341.694,44.296C342.318,45.832 343.326,46.984 344.766,47.8C345.726,48.328 346.974,48.76 348.462,48.952C349.998,49.192 352.254,49.288 355.23,49.288C358.782,49.288 361.278,49.096 362.622,48.712C363.966,48.28 365.07,47.464 365.934,46.12L366.126,46.12L366.126,49L369.582,49L369.582,16.984L366.078,16.984ZM363.534,30.616C364.494,31.144 365.166,31.96 365.598,33.112C365.982,34.216 366.174,35.896 366.174,38.152C366.174,40.024 365.982,41.464 365.646,42.52C365.262,43.576 364.638,44.392 363.822,45.016C363.15,45.448 362.094,45.784 360.75,45.928C359.406,46.12 357.342,46.216 354.606,46.216C350.43,46.216 347.646,45.688 346.398,44.68C345.15,43.672 344.526,41.416 344.526,37.96C344.526,35.944 344.718,34.408 345.054,33.304C345.438,32.152 346.062,31.336 346.878,30.76C347.598,30.328 348.558,29.992 349.902,29.848C351.198,29.656 353.166,29.56 355.758,29.56C359.694,29.56 362.286,29.896 363.534,30.616Z" style="fill-rule:nonzero;"/>
            <path d="M397.134,44.584C396.558,45.208 395.694,45.64 394.494,45.88C393.342,46.12 391.47,46.216 388.974,46.216C385.662,46.216 383.214,46.072 381.774,45.832C380.286,45.592 379.23,45.112 378.558,44.392C377.55,43.336 376.974,41.464 376.878,38.68L401.694,38.68C401.646,36.04 401.454,34.12 401.166,32.824C400.83,31.528 400.254,30.424 399.438,29.464C398.43,28.264 397.038,27.496 395.358,27.112C393.63,26.68 390.894,26.488 387.054,26.488C383.07,26.488 380.19,26.776 378.51,27.304C376.782,27.88 375.486,28.936 374.574,30.52C373.614,32.152 373.134,34.648 373.134,37.96C373.134,42.664 374.238,45.784 376.494,47.368C377.502,48.088 378.942,48.568 380.862,48.856C382.83,49.144 385.614,49.288 389.358,49.288C393.822,49.288 396.99,48.76 398.814,47.704C400.638,46.648 401.55,44.776 401.646,42.136L397.95,42.136C397.854,43.288 397.566,44.056 397.134,44.584ZM377.022,35.656C377.166,33.4 377.838,31.864 378.942,31C379.614,30.472 380.526,30.088 381.726,29.896C382.926,29.656 384.654,29.56 386.958,29.56C389.55,29.56 391.518,29.656 392.91,29.896C394.254,30.136 395.31,30.52 396.03,31.096C397.182,31.96 397.758,33.496 397.758,35.656L377.022,35.656Z" style="fill-rule:nonzero;"/>
            <path d="M404.862,49L408.366,49L408.366,40.264C408.366,37.336 408.462,35.32 408.654,34.216C408.798,33.112 409.182,32.2 409.758,31.576C410.382,30.856 411.342,30.328 412.542,30.04C413.742,29.704 415.47,29.56 417.726,29.56C421.614,29.56 424.158,30.088 425.31,31.192C425.742,31.624 426.078,32.248 426.27,32.968C426.414,33.736 426.51,34.888 426.51,36.472L426.51,49L430.014,49L430.014,40.264C430.014,37.528 430.11,35.56 430.35,34.408C430.542,33.208 430.974,32.248 431.598,31.528C432.174,30.808 433.086,30.28 434.286,29.992C435.438,29.704 437.118,29.56 439.374,29.56C443.31,29.56 445.806,30.088 446.91,31.192C447.726,31.96 448.11,33.736 448.11,36.472L448.11,49L451.614,49L451.614,37.336C451.614,34.744 451.518,32.92 451.278,31.912C451.086,30.904 450.606,29.992 449.886,29.176C448.926,28.168 447.726,27.448 446.19,27.064C444.702,26.68 442.446,26.488 439.374,26.488C436.206,26.488 433.854,26.776 432.366,27.352C430.878,27.88 429.774,28.888 429.054,30.376C428.142,28.84 426.942,27.832 425.358,27.304C423.774,26.776 421.134,26.488 417.534,26.488C414.798,26.488 412.878,26.68 411.774,27.064C410.622,27.496 409.518,28.36 408.414,29.704L408.414,26.776L404.862,26.776L404.862,49Z" style="fill-rule:nonzero;"/>
            <path d="M464.925,48.952L466.125,48.952C465.069,50.872 464.061,52.168 463.101,52.696C462.141,53.272 460.461,53.56 458.157,53.56C457.629,53.56 457.101,53.512 456.525,53.464L456.525,56.68C457.053,56.728 457.725,56.728 458.541,56.728C460.317,56.728 461.757,56.632 462.717,56.392C463.725,56.2 464.637,55.768 465.501,55.192C466.413,54.568 467.229,53.752 467.949,52.696C468.717,51.64 469.725,49.912 470.973,47.464L481.821,26.776L477.693,26.776L467.709,46.12L467.277,46.12L456.525,26.776L452.397,26.776L464.925,48.952Z" style="fill-rule:nonzero;"/>
        </g>
        <g transform="matrix(4.35846,0,0,4.35846,0,-1.29688)">
            <path d="M33.011,12.79C25.253,12.79 20.589,12.989 19.019,13.387C17.214,13.856 16.031,14.905 15.468,16.534C14.906,18.163 14.625,21.403 14.625,26.254C14.625,29.184 14.777,31.305 15.082,32.618C15.667,35.055 17.437,36.45 20.39,36.801C22.57,37.082 26.8,37.223 33.082,37.223C38.964,37.223 42.878,37.118 44.824,36.907C46.769,36.696 48.21,36.227 49.148,35.5C49.992,34.844 50.566,33.878 50.871,32.6C51.175,31.323 51.328,29.231 51.328,26.325C51.328,22.879 51.21,20.348 50.976,18.731C50.742,17.114 50.32,15.895 49.71,15.075C48.937,14.043 47.659,13.405 45.878,13.159C44.097,12.913 39.808,12.79 33.011,12.79ZM32.976,0.309C43.335,0.309 50.46,0.567 54.351,1.083C59.953,1.833 63.386,4.493 64.652,9.063C65.518,12.204 65.953,17.512 65.953,24.989C65.953,32.489 65.518,37.809 64.652,40.95C63.386,45.52 59.953,48.18 54.351,48.93C50.46,49.446 43.382,49.704 33.117,49.704C22.663,49.704 15.491,49.446 11.601,48.93C5.999,48.18 2.566,45.52 1.3,40.95C0.433,37.809 0,32.395 0,24.707C0,17.395 0.433,12.18 1.3,9.063C2.566,4.493 5.999,1.833 11.601,1.083C15.468,0.567 22.593,0.309 32.976,0.309Z" style="fill-rule:nonzero;"/>
            <path d="M67.71,1.012L87.714,1.012L102.516,17.852L117.422,1.012L137.672,1.012L114.574,24.743L138.797,49L118.23,49L102.516,31.739L86.906,49L65.847,49L90.386,24.743L67.71,1.012Z" style="fill-rule:nonzero;"/>
            <rect x="141.715" y="1.012" width="15.363" height="47.988" style="fill-rule:nonzero;"/>
            <path d="M178.207,36.766L198.563,36.766C202.312,36.766 205.072,36.643 206.842,36.397C208.611,36.151 209.859,35.723 210.586,35.114C211.382,34.434 211.945,33.356 212.273,31.879C212.602,30.403 212.766,28.176 212.766,25.2C212.766,22.223 212.625,19.985 212.344,18.485C212.063,16.985 211.57,15.836 210.867,15.04C210.07,14.172 208.916,13.616 207.404,13.37C205.893,13.124 202.898,13 198.422,13L178.207,13L178.207,36.766ZM163.793,49L163.793,1.012L198.422,1.012C204.562,1.012 208.582,1.059 210.48,1.153C212.379,1.247 214.359,1.504 216.422,1.926C221.226,2.911 224.355,5.629 225.809,10.083C226.348,11.77 226.71,13.581 226.898,15.514C227.086,17.448 227.18,20.372 227.18,24.286C227.18,28.575 227.068,31.821 226.846,34.024C226.623,36.227 226.207,38.231 225.598,40.036C224.168,44.254 221.226,46.856 216.773,47.84C214.687,48.309 212.461,48.62 210.094,48.772C207.726,48.924 203.848,49 198.457,49L163.793,49Z" style="fill-rule:nonzero;"/>
        </g>
    </g>
</svg>
